<svg xmlns="http://www.w3.org/2000/svg" viewBox="0 0 764 764"><title>febrero</title><path d="M260.89,678.09A317.63,317.63,0,0,0,383,702.38c176.11,0,319.38-143.27,319.38-319.38S559.11,63.62,383,63.62,63.62,206.89,63.62,383c0,100.18,46.39,189.7,118.79,248.29V567.08A271.33,271.33,0,0,1,110.59,383c0-150.21,122.2-272.41,272.41-272.41S655.41,232.79,655.41,383,533.21,655.41,383,655.41a271.67,271.67,0,0,1-75.15-10.55v-132H383v-47H260.89Z" transform="translate(-1 -1)" fill="#fff"/><path d="M505.11,349.08V336a122.11,122.11,0,0,0-244.23,0V450.26H383v-47H307.85V336a75.15,75.15,0,0,1,150.3,0v13Z" transform="translate(-1 -1)" fill="#fff"/><path d="M383,1C172.36,1,1,172.36,1,383,1,545,102.39,683.77,245,739.21V716.53h.16V511.77h0V336c0-76,61.8-137.77,137.77-137.77S520.77,260.07,520.77,336v13h47V336c0-101.86-82.87-184.74-184.74-184.74S198.26,234.17,198.26,336V460.46h-.06V582.94l-.13-.12v60.41l.13.09v19C107.74,602.21,48,499.48,48,383,48,198.26,198.26,48,383,48s335,150.3,335,335S567.74,718,383,718a333.32,333.32,0,0,1-122.31-23.12v50A380.45,380.45,0,0,0,383,765c210.64,0,382-171.36,382-382S593.64,1,383,1Z" transform="translate(-1 -1)" fill="#fff"/></svg>