<?xml version="1.0" standalone="no"?>
<!DOCTYPE svg PUBLIC "-//W3C//DTD SVG 20010904//EN"
 "http://www.w3.org/TR/2001/REC-SVG-20010904/DTD/svg10.dtd">
<svg version="1.0" xmlns="http://www.w3.org/2000/svg"
 width="1528.000000pt" height="1528.000000pt" viewBox="0 0 1528.000000 1528.000000"
 preserveAspectRatio="xMidYMid meet">
<metadata>
Created by potrace 1.11, written by Peter Selinger 2001-2013
</metadata>
<g transform="translate(0.000000,1528.000000) scale(0.100000,-0.100000)"
fill="#000000" stroke="none">
<path d="M7289 15276 c-2 -3 -62 -7 -134 -11 -71 -3 -143 -8 -160 -10 -16 -2
-61 -7 -100 -10 -38 -4 -83 -8 -100 -10 -16 -2 -55 -7 -85 -10 -30 -3 -64 -7
-75 -9 -11 -2 -42 -7 -70 -10 -89 -12 -119 -17 -205 -33 -46 -8 -96 -17 -110
-18 -22 -3 -148 -28 -205 -40 -11 -3 -29 -7 -41 -9 -11 -2 -70 -16 -130 -31
-60 -15 -118 -28 -130 -31 -62 -12 -424 -121 -579 -174 -457 -157 -873 -346
-1338 -609 -90 -51 -317 -192 -417 -260 -247 -167 -611 -443 -760 -576 -419
-376 -709 -679 -976 -1015 -32 -41 -61 -77 -64 -80 -3 -3 -17 -21 -30 -40 -13
-19 -27 -37 -30 -40 -20 -16 -292 -406 -367 -526 -225 -360 -416 -722 -563
-1069 -39 -93 -76 -179 -81 -190 -45 -101 -187 -515 -248 -725 -56 -196 -126
-493 -171 -735 -12 -64 -14 -74 -24 -145 -4 -25 -9 -56 -11 -70 -2 -14 -7 -45
-10 -70 -4 -25 -8 -56 -10 -70 -7 -50 -16 -127 -20 -166 -5 -52 -14 -149 -20
-199 -21 -197 -28 -929 -12 -1135 4 -52 10 -124 13 -160 3 -36 7 -78 9 -95 2
-16 7 -61 10 -100 4 -38 8 -76 10 -85 2 -8 6 -46 11 -85 4 -38 9 -72 9 -75 1
-3 5 -27 9 -55 4 -27 15 -88 23 -135 8 -47 17 -98 19 -115 20 -125 118 -547
159 -685 172 -577 361 -1044 619 -1525 87 -163 242 -425 312 -528 30 -43 54
-80 54 -82 0 -21 423 -593 470 -635 3 -3 25 -30 50 -60 216 -264 604 -656 875
-885 44 -37 91 -77 105 -89 171 -147 690 -526 720 -526 5 0 10 -4 12 -8 6 -14
327 -207 513 -308 289 -156 828 -401 859 -391 8 3 11 1173 12 4098 0 2252 4
4132 9 4179 8 88 9 101 20 185 17 130 95 438 134 530 5 11 26 63 47 115 296
732 939 1326 1702 1570 188 61 329 89 617 125 48 6 394 6 450 0 22 -2 61 -7
86 -9 689 -76 1344 -428 1795 -966 80 -95 224 -291 224 -304 0 -4 13 -26 28
-49 77 -112 188 -353 254 -547 60 -178 92 -319 123 -545 11 -75 19 -245 19
-407 1 -151 3 -178 16 -179 87 -5 899 -3 911 3 13 6 15 36 13 225 -1 201 -9
382 -18 429 -2 10 -7 48 -11 84 -4 36 -8 67 -10 70 -2 3 -6 27 -9 53 -39 292
-174 713 -326 1018 -92 184 -213 392 -283 484 -4 6 -37 51 -74 100 -286 386
-693 750 -1108 990 -402 233 -888 404 -1305 460 -25 3 -63 8 -85 11 -138 19
-288 28 -460 28 -132 0 -320 -9 -395 -19 -14 -1 -47 -5 -75 -9 -275 -31 -635
-125 -913 -237 -322 -131 -709 -357 -932 -546 -14 -11 -59 -49 -100 -84 -170
-143 -389 -376 -532 -566 -181 -239 -364 -552 -458 -783 -12 -30 -28 -68 -35
-85 -17 -39 -85 -231 -90 -253 -3 -9 -16 -55 -30 -102 -14 -47 -27 -94 -29
-105 -3 -11 -13 -58 -24 -105 -11 -47 -28 -132 -37 -190 -9 -58 -18 -116 -21
-130 -2 -14 -6 -56 -10 -95 -3 -38 -8 -81 -11 -95 -2 -14 -6 -1550 -9 -3414
-2 -1864 -5 -3390 -7 -3392 -10 -10 -446 316 -627 470 -229 194 -483 442 -670
655 -36 41 -73 83 -83 93 -34 36 -261 323 -320 403 -532 732 -897 1515 -1107
2373 -28 114 -71 320 -85 402 -3 19 -8 42 -10 50 -2 8 -7 35 -10 60 -2 25 -7
54 -9 65 -3 19 -12 82 -21 150 -5 31 -10 79 -20 180 -3 33 -8 78 -10 100 -27
256 -27 845 -1 1135 3 25 7 78 11 119 4 41 8 81 10 90 1 9 6 43 9 76 4 33 16
116 27 185 11 69 22 136 24 150 2 14 9 50 14 80 6 30 13 64 15 75 8 44 57 255
61 267 2 7 7 24 9 38 24 129 207 692 270 833 8 17 38 88 66 157 261 623 675
1275 1144 1805 242 273 551 569 806 771 41 32 77 62 80 65 27 32 596 429 615
429 3 0 33 18 66 40 33 22 62 40 63 40 1 0 58 32 126 70 110 63 499 260 513
260 4 0 34 13 69 30 245 114 886 332 1078 366 14 3 32 7 40 10 15 5 129 31
180 40 14 3 59 12 100 20 41 9 86 17 100 20 72 11 219 34 250 39 346 47 550
60 935 60 250 0 364 -4 570 -20 75 -5 295 -30 355 -40 14 -2 43 -6 65 -10 23
-3 52 -8 65 -10 14 -3 41 -7 60 -10 19 -3 46 -7 60 -10 14 -3 41 -8 60 -11
136 -24 433 -94 610 -145 193 -56 541 -176 675 -234 373 -160 637 -292 907
-454 14 -9 48 -29 75 -45 89 -54 344 -226 442 -298 642 -474 1182 -1037 1618
-1688 239 -356 430 -711 618 -1145 116 -268 269 -743 340 -1054 12 -49 64
-305 69 -333 3 -18 8 -44 10 -57 3 -13 8 -49 12 -80 3 -31 8 -58 9 -61 2 -3 6
-30 10 -60 3 -30 10 -82 15 -115 5 -33 12 -98 15 -145 4 -47 9 -96 11 -110 25
-143 25 -890 0 -1125 -2 -16 -7 -66 -10 -109 -4 -43 -9 -86 -11 -95 -1 -9 -6
-45 -10 -81 -4 -36 -9 -73 -11 -83 -2 -10 -8 -51 -13 -90 -6 -40 -13 -83 -16
-97 -3 -14 -7 -38 -9 -55 -3 -16 -14 -77 -26 -135 -11 -58 -23 -116 -26 -130
-3 -14 -11 -50 -19 -80 -8 -30 -16 -66 -19 -80 -42 -218 -243 -808 -362 -1068
-19 -41 -34 -76 -34 -79 0 -12 -174 -358 -241 -480 -117 -211 -308 -514 -425
-673 -18 -25 -48 -65 -66 -90 -353 -481 -840 -972 -1340 -1352 -396 -300 -923
-611 -1338 -788 -41 -18 -88 -38 -105 -46 -305 -137 -886 -317 -1260 -390 -11
-2 -42 -8 -70 -14 -27 -5 -66 -12 -85 -15 -19 -3 -42 -8 -50 -10 -8 -2 -37 -6
-65 -10 -27 -3 -61 -7 -75 -10 -63 -12 -187 -27 -315 -40 -33 -3 -79 -8 -103
-10 -264 -27 -851 -27 -1147 0 -77 7 -156 15 -195 20 -19 2 -57 7 -85 10 -27
3 -61 7 -75 10 -33 6 -96 15 -140 21 -19 2 -46 6 -60 9 -14 3 -36 7 -50 10
-14 3 -36 7 -50 10 -14 2 -41 7 -60 10 -19 3 -71 14 -115 25 -44 10 -93 21
-110 24 -146 27 -489 129 -731 216 -93 34 -176 62 -184 63 -13 2 -15 -60 -17
-495 l-1 -498 156 -49 c224 -71 517 -149 652 -175 14 -3 59 -12 100 -21 78
-17 164 -33 215 -41 17 -2 55 -8 85 -14 126 -22 156 -26 270 -40 52 -6 111
-13 130 -16 19 -3 64 -7 100 -9 36 -3 81 -7 100 -10 207 -27 1048 -27 1283 0
79 9 146 16 202 21 33 2 71 7 85 9 14 2 52 7 85 10 33 4 67 8 75 10 8 2 35 7
60 10 25 3 56 8 70 10 40 8 62 12 110 20 178 29 649 135 730 164 14 5 59 19
100 31 233 67 683 230 895 326 22 10 42 18 45 19 33 7 489 236 624 314 49 28
90 51 92 51 1 0 50 29 108 64 412 253 711 470 1056 765 167 143 233 205 425
397 154 154 200 202 320 338 39 44 75 84 80 90 6 6 28 34 50 61 22 28 43 52
46 55 3 3 48 59 101 125 426 539 788 1153 1053 1790 57 138 164 414 169 440 2
6 28 89 59 185 48 147 137 464 151 535 2 11 9 40 15 65 5 25 12 56 15 70 2 14
9 45 15 70 5 25 12 57 15 72 2 15 11 63 20 105 8 43 18 94 20 113 3 19 8 46
10 60 6 30 13 77 22 145 3 28 8 59 10 70 4 20 13 102 19 165 6 71 16 166 20
197 26 193 26 1120 1 1283 -3 14 -7 59 -11 100 -3 41 -8 89 -10 105 -2 17 -7
51 -10 78 -13 116 -18 149 -36 267 -47 298 -138 704 -211 945 -85 283 -184
567 -253 730 -8 17 -30 70 -50 119 -20 49 -41 96 -45 105 -5 9 -32 67 -60 129
-107 234 -219 444 -376 705 -49 81 -93 155 -99 165 -22 39 -203 304 -276 404
-328 451 -807 970 -1198 1298 -29 25 -59 50 -65 55 -8 9 -247 201 -301 243
-127 100 -631 442 -650 442 -3 0 -36 20 -75 45 -39 25 -72 45 -74 45 -3 0 -44
23 -93 51 -324 189 -838 419 -1251 560 -298 102 -720 216 -977 264 -81 15
-148 27 -230 41 -129 21 -135 22 -185 29 -25 3 -56 8 -70 10 -14 2 -50 7 -80
10 -30 3 -71 8 -91 11 -20 2 -56 6 -80 8 -80 7 -203 18 -244 22 -54 6 -862 14
-866 10z"/>
<path d="M7337 14024 c-1 -2 -51 -6 -111 -9 -59 -3 -122 -7 -139 -10 -18 -2
-63 -7 -102 -10 -63 -5 -268 -31 -312 -39 -10 -2 -40 -7 -67 -10 -28 -4 -79
-13 -115 -21 -36 -7 -82 -16 -101 -19 -19 -3 -87 -17 -150 -31 -862 -195
-1705 -581 -2405 -1105 -122 -92 -336 -263 -386 -310 -9 -8 -56 -51 -105 -95
-374 -337 -753 -780 -1039 -1215 -206 -313 -355 -586 -524 -961 -181 -403
-362 -1002 -431 -1429 -7 -41 -14 -84 -16 -95 -6 -28 -32 -210 -38 -270 -3
-27 -8 -77 -12 -110 -3 -33 -8 -73 -10 -90 -25 -207 -25 -888 1 -1110 2 -16 6
-59 9 -95 4 -36 9 -81 11 -100 3 -19 7 -55 10 -80 6 -50 15 -114 21 -145 2
-11 6 -38 9 -60 12 -95 94 -479 131 -610 6 -22 6 -23 23 -85 7 -25 24 -81 38
-125 14 -44 26 -87 28 -95 5 -22 72 -211 115 -325 129 -339 318 -723 513
-1045 123 -203 378 -562 532 -745 249 -299 528 -580 822 -828 l93 -78 0 646
c0 504 -3 649 -12 659 -7 7 -38 41 -68 76 -30 35 -62 71 -70 80 -8 8 -33 38
-55 65 -21 28 -42 52 -45 55 -12 10 -179 238 -242 330 -65 94 -218 337 -218
346 0 2 -11 22 -25 44 -45 71 -180 342 -244 490 -87 201 -86 199 -106 255 -10
28 -23 64 -30 80 -31 75 -126 384 -160 525 -9 36 -17 72 -20 80 -8 34 -64 318
-70 360 -4 25 -9 54 -11 65 -3 11 -6 40 -9 65 -3 25 -7 54 -9 65 -2 11 -7 54
-10 95 -4 41 -9 86 -11 100 -24 137 -24 769 0 975 2 17 6 62 10 100 4 39 9 82
11 96 2 15 6 47 9 70 5 40 18 127 31 204 3 17 7 38 10 48 3 10 7 30 9 45 3 15
7 38 10 52 3 14 8 39 10 55 3 17 10 44 15 60 5 17 11 41 14 55 2 14 20 85 40
159 154 565 397 1098 729 1596 75 112 262 365 319 430 238 278 347 390 599
620 24 23 94 81 154 131 440 361 918 644 1445 856 74 30 256 97 275 102 6 1
48 15 95 30 138 45 453 126 580 149 14 3 63 12 110 20 101 19 119 21 275 41
157 19 208 24 340 33 209 13 669 7 820 -12 17 -1 64 -6 105 -10 41 -4 82 -9
91 -10 9 -2 40 -6 70 -10 185 -23 491 -87 703 -146 676 -191 1267 -484 1824
-903 347 -262 704 -608 960 -929 33 -42 65 -81 71 -89 64 -72 316 -446 406
-603 73 -126 220 -415 264 -520 19 -44 44 -102 57 -130 41 -94 112 -290 159
-440 25 -82 50 -162 55 -177 5 -16 7 -28 4 -28 -3 0 0 -8 5 -18 6 -11 12 -30
15 -43 2 -13 16 -71 30 -129 25 -108 71 -340 81 -420 3 -25 8 -56 10 -70 52
-338 66 -907 30 -1240 -2 -19 -6 -62 -10 -95 -3 -33 -8 -71 -10 -85 -2 -14 -6
-47 -10 -75 -3 -27 -8 -61 -10 -75 -2 -14 -9 -56 -15 -95 -6 -38 -25 -133 -41
-210 -166 -781 -491 -1496 -971 -2137 -311 -414 -749 -849 -1132 -1123 -15
-11 -47 -34 -70 -51 -63 -47 -322 -215 -406 -264 -495 -289 -1049 -506 -1580
-620 -25 -5 -56 -12 -70 -15 -36 -8 -132 -27 -155 -30 -11 -1 -49 -8 -85 -13
-36 -6 -87 -14 -115 -18 -27 -3 -57 -7 -65 -9 -8 -2 -51 -6 -95 -10 -44 -4
-88 -9 -98 -11 -130 -23 -728 -23 -972 1 -22 2 -69 7 -105 10 -36 4 -78 8 -95
11 -62 8 -240 36 -250 38 -5 2 -32 6 -60 10 -27 5 -86 16 -130 27 -45 10 -92
20 -105 23 -53 11 -264 67 -268 71 -4 4 -6 2568 -3 2623 1 9 158 12 751 12
l750 0 0 470 c0 369 -3 470 -12 471 -7 0 -555 1 -1217 1 -1098 1 -1205 -1
-1210 -15 -7 -18 -7 -4225 0 -4231 28 -26 601 -223 762 -262 9 -2 25 -6 35 -9
248 -71 670 -148 987 -180 33 -3 78 -8 100 -10 249 -26 868 -26 1115 0 19 2
62 6 95 10 57 5 263 32 315 40 14 2 68 11 120 20 52 10 109 19 125 22 17 2
100 20 185 39 382 87 761 209 1115 362 452 194 886 443 1275 732 111 82 256
195 270 210 3 3 37 32 75 64 307 257 581 542 908 946 7 8 35 46 62 84 28 38
57 76 65 85 44 49 298 442 382 591 14 25 35 63 48 85 29 51 220 431 220 438 0
3 16 41 35 84 20 43 40 87 45 98 122 270 315 902 366 1205 3 14 11 61 19 105
14 75 17 96 30 178 3 17 7 43 10 57 2 14 7 50 10 80 3 30 8 62 10 70 2 8 7 55
10 104 4 50 9 99 11 110 24 123 23 976 -1 1105 -1 9 -6 50 -10 91 -3 41 -8 86
-10 100 -2 14 -6 50 -10 80 -3 30 -8 66 -10 80 -3 14 -7 40 -10 58 -10 61 -14
87 -30 177 -23 135 -25 145 -40 205 -7 30 -16 72 -20 93 -12 72 -105 398 -164
575 -60 181 -146 408 -201 526 -16 37 -30 68 -30 71 0 23 -215 435 -339 649
-75 130 -352 542 -380 566 -3 3 -31 39 -62 80 -198 266 -564 654 -849 900 -41
36 -77 68 -80 71 -8 9 -202 163 -245 195 -22 16 -42 31 -45 34 -14 16 -231
168 -345 242 -203 133 -411 252 -647 370 -119 59 -219 108 -222 108 -3 0 -40
16 -82 35 -41 19 -78 35 -81 35 -3 0 -19 6 -36 14 -138 62 -636 232 -738 251
-9 2 -67 17 -130 34 -63 16 -130 33 -149 36 -19 3 -53 10 -75 15 -22 5 -56 12
-75 15 -19 3 -53 10 -75 15 -22 5 -58 11 -80 14 -23 4 -52 8 -65 11 -44 9
-223 34 -285 40 -33 4 -71 8 -84 10 -14 3 -68 7 -120 11 -53 3 -112 8 -131 11
-40 5 -708 12 -713 7z"/>
<path d="M7557 11024 c-1 -1 -45 -5 -99 -8 -53 -4 -105 -8 -115 -10 -10 -2
-40 -7 -67 -10 -28 -4 -82 -14 -120 -22 -39 -9 -82 -18 -96 -20 -14 -3 -56
-15 -95 -26 -38 -12 -74 -22 -80 -24 -5 -1 -55 -18 -110 -39 -870 -325 -1495
-1155 -1571 -2085 -5 -64 -10 -2313 -5 -2461 l1 -27 1220 0 1220 1 -2 471 -3
471 -747 0 c-493 0 -748 3 -749 10 -4 55 0 1415 5 1460 9 87 16 138 21 155 2
8 7 31 10 50 20 121 132 378 219 505 157 229 373 413 621 529 70 33 242 91
300 101 22 4 49 10 60 12 87 18 398 25 470 11 17 -3 59 -11 95 -18 99 -18 260
-74 371 -129 290 -145 526 -381 669 -669 68 -138 118 -283 136 -397 3 -22 7
-42 9 -45 8 -13 17 -193 18 -335 0 -104 4 -155 11 -156 54 -4 915 -1 922 3 15
10 7 465 -10 553 -2 11 -7 43 -10 70 -23 177 -90 410 -172 601 -43 100 -153
308 -165 312 -5 2 -9 8 -9 13 0 9 -66 111 -96 148 -7 9 -41 52 -75 96 -35 44
-118 135 -185 201 -359 356 -830 598 -1314 674 -41 6 -86 13 -99 15 -60 10
-376 25 -384 19z"/>
</g>
</svg>
